<svg width="1400" height="980" viewBox="0 0 1400 980" fill="none" xmlns="http://www.w3.org/2000/svg">
<path d="M712.7 901.7C1023.91 901.7 1276.2 866.331 1276.2 822.7C1276.2 779.07 1023.91 743.7 712.7 743.7C401.488 743.7 149.2 779.07 149.2 822.7C149.2 866.331 401.488 901.7 712.7 901.7Z" fill="#D5D3EA"/>
<path opacity="0.41" d="M518.9 471.8C515.4 462.6 509.3 455.1 501.1 449.8C498.5 448.1 496 452.3 498.6 454C504 457.4 508.4 462 511.5 467.5C509.4 466.5 507.3 465.5 505.2 464.6C502.4 463.3 499.9 467.5 502.7 468.8C506.9 470.8 511.1 472.7 515.3 474.7C517.1 475.4 519.8 474 518.9 471.8Z" fill="#383838"/>
<path opacity="0.41" d="M468.599 383.6C466.499 380.1 464.399 376.6 462.299 373.2C460.699 370.5 456.499 373 458.099 375.7C460.199 379.2 462.299 382.7 464.399 386.1C466.099 388.8 470.299 386.3 468.599 383.6Z" fill="#383838"/>
<path opacity="0.41" d="M554.2 475.8C551.1 475.8 551.1 480.7 554.2 480.7C557.3 480.6 557.3 475.8 554.2 475.8Z" fill="#383838"/>
<path opacity="0.41" d="M891.899 191.7C888.799 191.7 888.799 196.6 891.899 196.6C895.099 196.6 895.099 191.7 891.899 191.7Z" fill="#383838"/>
<path opacity="0.41" d="M977.5 610.1C957.3 580.3 933.8 553 907.4 528.5C905.1 526.4 901.7 529.8 904 531.9C930.1 556 953.4 583 973.3 612.5C975 615.2 979.2 612.7 977.5 610.1Z" fill="#383838"/>
<path opacity="0.41" d="M1016.9 760.3C1009.3 745.4 1001.8 730.4 994.199 715.5C978.799 685 963.399 654.6 947.999 624.1C946.599 621.3 942.399 623.8 943.799 626.6C958.099 654.8 972.299 682.9 986.599 711.1C993.599 724.9 1000.6 738.7 1007.5 752.5C1009.2 755.9 1011 759.4 1012.7 762.8C1014.9 767.1 1017.1 770.1 1015.1 775C1012 782.5 1007.2 789.8 1003.4 796.9C1001.9 799.7 1006.1 802.1 1007.6 799.4C1011.6 791.9 1015.8 784.5 1019.6 776.9C1022.7 770.5 1019.8 766.2 1016.9 760.3Z" fill="#383838"/>
<path opacity="0.41" d="M748.2 721.7C745.1 721.7 745.1 726.6 748.2 726.6C751.3 726.6 751.3 721.7 748.2 721.7Z" fill="#383838"/>
<path opacity="0.41" d="M864.6 376.5C861.1 369.6 857.7 362.6 854.2 355.7C852.8 352.9 848.6 355.4 850 358.2C853.5 365.1 856.9 372.1 860.4 379C861.8 381.8 866 379.3 864.6 376.5Z" fill="#383838"/>
<path d="M216.3 596.7H526.9C531.4 596.7 535.6 594.2 538 590L703.8 207.3C706.2 203.1 710.4 200.6 714.9 200.6L1093 200.1C1100.2 200.1 1106.1 193.7 1106.1 185.9C1106.1 172.8 1121 166.7 1129 176.5L1278 358.9C1283 365 1282.2 374.3 1276.3 379.4L1127.4 507.4C1118.8 514.8 1106.1 508.2 1106.1 496.3V490.9C1106.1 483.1 1100.2 476.7 1093 476.7H821.4C817 476.7 812.9 479.1 810.4 483.1L668 811.1C665.6 815.1 661.5 817.5 657 817.5H216.3C209.1 817.5 203.2 811.2 203.2 803.3V610.9C203.2 603.1 209.1 596.7 216.3 596.7Z" fill="#8681BD"/>
<path d="M703.799 207.3L562.899 532.6L668.099 811.1L810.499 483.1C812.899 479.1 816.999 476.7 821.499 476.7H862.499L712.799 200.8C709.099 201.5 705.899 203.8 703.799 207.3Z" fill="#4E4D93"/>
<path d="M1167.8 596.7H857.2C852.7 596.7 848.5 594.2 846.1 590L680.3 207.3C677.9 203.1 673.7 200.6 669.2 200.6L291.1 200.1C283.9 200.1 278 193.7 278 185.9C278 172.8 263.1 166.7 255.1 176.5L106.1 358.9C101.1 365 101.9 374.3 107.8 379.4L256.7 507.4C265.3 514.8 278 508.2 278 496.3V490.9C278 483.1 283.9 476.7 291.1 476.7H562.7C567.1 476.7 571.2 479.1 573.7 483.1L716.1 811.1C718.5 815.1 722.6 817.5 727.1 817.5H1167.9C1175.1 817.5 1181 811.2 1181 803.3V610.9C1180.9 603.1 1175.1 596.7 1167.8 596.7Z" fill="#2B83C5"/>
<path d="M594.3 530.7L579 495.4L538 590C535.6 594.2 531.4 596.7 526.9 596.7H457.2L425.6 674.3L374.5 817.4H414.9L474.8 694L523.7 613.2L538.8 682.8L647.4 817.4H657.2C661.6 817.4 665.7 815 668.2 811L674.5 796.5L610.3 657.2L594.3 530.7Z" fill="#4E4D93"/>
<path d="M683.7 529.6C683.1 526.8 682 524.2 680.5 521.8C678.8 519 676.5 516.5 674.1 514.2C673.1 513.2 671.8 512.2 670.4 511.2C670.4 511.1 670.4 511 670.3 510.9C670.3 510.7 670.2 510.5 670.2 510.3C670.2 510.1 670.1 509.9 670.1 509.6C670.1 509.4 670 509.2 670 509C670 508.8 669.9 508.6 669.9 508.4C669.8 508 669.7 507.7 669.7 507.3C669.7 507.1 669.6 506.9 669.6 506.7C669.5 506.4 669.5 506.2 669.4 505.9C669.4 505.7 669.3 505.5 669.3 505.3C662.6 475 637.3 390.8 637.1 389.5C637.1 389.2 634.1 385.5 629.3 379.8C610.8 357.6 565.2 304.6 560 298.6C559.6 298.2 559.3 297.8 558.8 297.5C557.9 296.7 556.1 295.4 553.7 293.9C546.1 283.4 537.5 276 527.9 273.1L521.1 262.7L518.7 263.9L517.5 261.9L516.5 262.3L512.3 247.9C516.4 240.4 519.9 232.4 520.9 223.9C521.8 215.6 519.9 206.6 514.3 200.5L442.3 200.4C443.3 202.3 444 204.3 444.4 206.3C439.1 206.4 433.8 207.1 428.7 208.3C428.7 208.3 440.7 221.1 442.2 222.2C447.6 226.2 453.5 229 459.8 231.2H459.9C459.9 241.6 460.5 273.1 469.9 270.6C481.1 267.6 494 264.2 494 264.2L494.6 271.7L488.6 274.3L490.5 278L490.3 278.1L498.4 303L495.5 343.5L461.7 428.7C461.7 428.7 444.1 451.7 425.1 476.7H480.2C482.4 474.7 484.5 472.9 486.5 471.1L486.1 476.7H563.1C567.5 476.7 571.6 479.1 574.1 483.1L579.5 495.5L594.8 530.8L593.1 517.4L610.7 511.9C610.7 511.9 608.2 482.3 601.9 443.8C600.1 432.6 597.9 420.6 595.4 408.4L599 412.3C599 412.3 602.6 419.4 608 429.9C620.8 454.9 643.6 499.6 652.5 516.7C652.6 516.8 652.6 516.9 652.7 517.1C652.8 517.3 652.9 517.5 653 517.8C653.1 517.9 653.1 518 653.2 518.2C653.4 518.6 653.6 518.9 653.7 519.2C653.8 519.3 653.8 519.4 653.9 519.6C654 519.8 654.1 519.9 654.2 520.1C654.3 520.3 654.4 520.4 654.5 520.6C654.6 520.8 654.7 520.9 654.8 521.1C654.9 521.3 655 521.4 655.1 521.6C655.1 521.7 655.2 521.8 655.2 521.9C655.3 522.1 655.4 522.3 655.5 522.4C655.5 522.4 655.5 522.5 655.6 522.5C655.6 522.6 655.7 522.6 655.7 522.7C654.4 523.6 652.3 525.2 652.8 528.7C653 529.9 655.4 532.3 656.3 533.1C658.7 535.1 660.5 534.9 659.8 538C659.1 541 658.1 544.2 659.2 547.2C660.1 549.5 662.3 551.2 664.8 551.5C668 551.8 670.8 549.8 673.4 547.9C674.8 546.8 676.3 545.8 677.7 544.7C680.2 542.8 682.9 540.8 684.1 538C684.4 535 684.3 532.2 683.7 529.6Z" fill="#164F72"/>
<path d="M957.999 312.6L955.399 306L945.899 282L942.599 236.7L951.699 208.9L951.499 208.8L953.599 204.7L946.799 201.8L946.899 200.4H911.199L909.399 203.2C898.699 206.4 889.099 214.7 880.599 226.4C877.899 228.1 875.899 229.6 874.899 230.5C874.399 230.9 873.999 231.3 873.599 231.8C868.899 237.3 834.099 277.7 810.099 305.9C809.599 306.4 809.199 307 808.699 307.5C807.599 308.8 806.499 310.1 805.399 311.4L805.299 311.5C805.199 311.7 804.999 311.8 804.899 312C804.799 312.1 804.799 312.1 804.699 312.2C804.399 312.6 804.099 313 803.699 313.3L803.599 313.4C803.599 313.4 803.599 313.3 803.699 313.3C803.599 313.4 803.399 313.6 803.299 313.7C802.999 314.1 802.699 314.4 802.399 314.8C802.299 315 802.099 315.1 801.999 315.3C801.699 315.7 801.399 316 801.099 316.4C800.999 316.5 800.999 316.6 800.899 316.6C800.299 317.3 799.799 318 799.199 318.6C799.099 318.8 798.899 319 798.799 319.1C798.499 319.4 798.299 319.7 797.999 320C797.899 320.2 797.699 320.3 797.599 320.5C797.399 320.8 797.099 321.1 796.899 321.3C796.699 321.5 796.599 321.7 796.399 321.9C796.199 322.1 795.999 322.4 795.799 322.6C795.599 322.8 795.399 323.1 795.199 323.3C794.899 323.6 794.699 323.9 794.399 324.3C794.199 324.5 793.999 324.8 793.799 325C793.699 325.2 793.499 325.3 793.399 325.5C793.199 325.7 792.999 326 792.799 326.2C792.699 326.4 792.499 326.5 792.399 326.7C792.199 326.9 792.099 327.1 791.899 327.3C791.799 327.4 791.699 327.6 791.599 327.7C791.299 328 791.099 328.3 790.799 328.6C790.799 328.6 790.799 328.7 790.699 328.7C790.499 329 790.299 329.2 790.099 329.5C789.999 329.6 789.899 329.7 789.899 329.8C789.799 330 789.599 330.1 789.499 330.3C789.399 330.4 789.399 330.5 789.299 330.6C789.199 330.8 788.999 330.9 788.899 331.1C788.799 331.2 788.799 331.2 788.699 331.3C788.499 331.5 788.399 331.7 788.199 331.9C788.099 332.1 787.999 332.2 787.899 332.3L787.799 332.4C787.699 332.5 787.699 332.6 787.599 332.7L787.499 332.8C787.499 332.9 787.399 332.9 787.399 333C787.399 333 787.399 333 787.399 333.1C787.399 333.2 787.299 333.2 787.299 333.2C787.199 333.7 783.999 344.8 779.399 360.5C779.099 361.4 778.899 362.3 778.599 363.2C778.099 365 777.499 366.9 776.999 368.8C775.099 375.5 772.999 382.7 770.899 390.1C769.699 394.3 768.499 398.7 767.199 403C766.899 404 766.699 404.9 766.399 405.9L784.799 448.3C785.999 445.9 787.299 443.5 788.499 441C789.499 439.1 790.399 437.3 791.399 435.4C793.299 431.6 795.299 427.7 797.299 423.9C798.299 422 799.299 420 800.299 418.1C800.799 417.1 801.299 416.2 801.799 415.2C802.799 413.3 803.799 411.3 804.799 409.4C805.299 408.4 805.799 407.5 806.299 406.5C807.299 404.6 808.199 402.7 809.199 400.9C809.699 400 810.099 399.1 810.599 398.1C812.499 394.5 814.299 390.9 815.999 387.6C816.899 385.9 817.699 384.3 818.499 382.7C825.699 368.6 830.699 358.8 830.699 358.8L834.699 354.5C822.199 415 817.499 470.3 817.499 470.3L837.199 476.5V476.6H959.999L956.399 424.8C971.899 438.7 994.599 459 1014.9 476.6H1059.6C1032.4 440.6 983.899 377.4 983.899 377.4L957.999 312.6Z" fill="#4E4D93"/>
<path d="M968.799 674.4L1040.2 814.1L1040.6 817.5H1082.5L1077.2 811.4L1071.6 794.9L1042.6 708.2L1023.9 652.3L1010.8 620.2L1001.3 596.7H921.799L968.799 674.4Z" fill="#164F72"/>
<path d="M897.299 661.8L898.899 654.4L899.299 652.6L911.399 596.7H857.299C852.799 596.7 848.599 594.2 846.199 590L827.999 548.2L817.899 628.7L817.299 633.2L764.499 755.6L747.699 794.6L732.199 817.5H772.799L772.299 816.7L897.299 661.8Z" fill="#164F72"/>
<path d="M763.599 416C761.799 422.4 760.099 428.7 758.499 434.6C757.999 436.6 757.499 438.5 756.999 440.4C756.799 441.3 756.499 442.301 756.299 443.201C755.299 446.901 754.499 450.4 753.699 453.6C753.299 455.2 752.899 456.701 752.599 458.201C751.899 461.101 751.299 463.7 750.899 466C750.599 467.4 750.399 468.601 750.199 469.701C748.599 470.801 747.199 472 746.099 473C743.399 475.6 740.899 478.3 738.999 481.5C737.299 484.2 736.099 487.201 735.399 490.201C734.699 493.101 734.499 496.3 735.699 499.1C737.099 502.3 739.999 504.6 742.799 506.6C744.399 507.8 745.999 509.001 747.599 510.201C750.499 512.301 753.699 514.501 757.199 514.201C759.999 514.001 762.499 512 763.499 509.4C764.699 506.1 763.499 502.601 762.799 499.201C762.099 495.801 763.999 495.901 766.699 493.701C767.799 492.801 770.399 490.2 770.599 488.8C771.199 484.9 768.799 483.1 767.299 482.1C768.499 479.9 771.199 474.8 774.799 467.9C777.699 462.4 781.099 455.6 784.899 448.3L766.399 406C766.399 406.1 766.299 406.2 766.299 406.3C765.399 409.6 764.499 412.8 763.599 416Z" fill="#164F72"/>
<path d="M609.9 528.4C610.1 529.6 612.5 532 613.4 532.8C615.8 534.8 617.6 534.6 616.9 537.7C616.2 540.7 615.2 543.9 616.3 546.9C617.2 549.2 619.4 550.9 621.9 551.2C625.1 551.5 627.9 549.5 630.5 547.6C631.9 546.5 633.4 545.5 634.8 544.4C637.3 542.5 640 540.5 641.2 537.7C642.2 535.2 642.1 532.4 641.5 529.8C640.9 527 639.8 524.4 638.3 522C636.6 519.2 634.3 516.7 631.9 514.4C628.4 511 621.5 506.2 616.9 510.7C615.3 512.3 614.9 514.7 614.6 516.8C614.4 518.5 615 520.6 613.8 521.9C613.4 522.2 609.2 523.6 609.9 528.4Z" fill="#FEC83D"/>
<path d="M468.6 309C467.1 312.5 467.7 316.5 470.3 319.3L556.2 412.1C556.2 412.1 612.7 523 613.4 523.4C614.2 523.8 625.4 519.8 628.4 515.8C631.4 511.8 595 390.9 594.7 389.3C594.5 387.7 524.1 305.9 517.6 298.4C517.2 298 516.9 297.6 516.4 297.3C511.8 293.4 484.4 273.1 468.6 309Z" fill="#192428"/>
<path d="M613.4 523.4C614.2 523.8 625.4 519.8 628.4 515.8C628.9 515.1 628.2 510.8 626.7 504.3L608.9 515C611.6 520.2 613.3 523.4 613.4 523.4Z" fill="#FFEECB"/>
<path d="M336.7 822.2L320.1 834.2C320.1 834.2 264.2 840.1 258.7 856.5H364.2L366.6 814.9L336.7 822.2Z" fill="#0D1416"/>
<path d="M612.5 813.5L602.3 831.3C602.3 831.3 552.1 842.6 553.8 859.8L602.7 856.4L651.7 833.5L629.3 800.4L612.5 813.5Z" fill="#0D1416"/>
<path d="M450.701 508.8L383.301 674.3L329.101 826.2H368.401L432.601 694.1L522.001 546.2C522.001 546.2 463.201 505.9 450.701 508.8Z" fill="#0D1416"/>
<path d="M461.101 519.4L496.501 682.9L612.201 826.2L636.701 806.4L567.901 657.3L548.101 499.5L461.101 519.4Z" fill="#192428"/>
<path d="M455.9 302.9L446.1 438.9L439.4 534.5L448.6 522.3L466.7 543.7L567.9 511.8C567.9 511.8 549.5 292.1 485.6 272.9L455.9 302.9Z" fill="#273941"/>
<path d="M482.9 453.2C486.1 449 488.5 444.2 490.7 439.4C516.4 384.4 512.6 315.7 511.4 315.9C504.3 316.8 503.7 313.6 499.5 319.5C481.5 345 470 374.4 458.6 403.4C455.4 411.4 452.1 419.6 447 426.5L446.1 438.9L443.2 480.1C457.5 472.2 473.2 466.1 482.9 453.2Z" fill="#0D1416"/>
<path d="M386.3 208.3C391.4 207 396.7 206.3 402 206.3C401.3 202.7 399.7 199.2 397.3 196.5C415 188.4 435.4 186.6 454.2 191.2C460.2 192.7 466.2 194.9 470.7 199.2C477.2 205.4 479.5 215 478.5 223.9C477.5 232.8 473.7 241.1 469.4 248.9C468.9 249.8 468.4 250.7 467.5 251.3C466.8 251.7 465.9 251.8 465 251.9C460 252.3 454.9 252.4 450 251.3C443 249.8 436.8 245.9 431.3 241.6C426.5 237.8 423.2 233.2 417.4 231.3C411.1 229.2 405.2 226.3 399.8 222.3C398.3 221.1 386.4 208.3 386.3 208.3Z" fill="#0D1416"/>
<path d="M417.5 227.9C417.5 227.9 416.2 273.6 427.5 270.5C438.7 267.5 451.6 264.1 451.6 264.1L453.5 288.9L478.1 275.7L469 244.4C469 244.4 460.8 245.7 459.1 237.5C459.1 237.5 473.5 231.4 468.9 225.1C464.3 218.8 453.8 219.5 452.9 229.7V238.5L443.5 237.4V224.6L417.5 227.9Z" fill="#FEC83D"/>
<path d="M478.8 267.6L475.1 261.8L446.1 274.3L455.7 293L478.8 267.6Z" fill="#FFEECB"/>
<path d="M478.8 262.5L447.8 278.1L455.9 302.9L485.6 272.9L478.8 262.5Z" fill="#273941"/>
<path d="M480.3 291.9C476.1 292 472.4 294.6 470.8 298.5L419.2 428.7C419.2 428.7 335.5 538.1 335.5 539C335.5 539.9 344.9 549.3 350.3 550.3C355.7 551.3 459 457.2 460.5 456.2C462 455.3 510 345.9 514.4 335.8C514.6 335.2 514.8 334.7 515 334.1C516.6 327.6 523.8 290.6 480.3 291.9Z" fill="#273941"/>
<path d="M326.201 538.7C325.201 539.4 324.1 542.6 323.8 543.8C323.1 546.8 323.9 548.3 320.9 549.1C317.9 549.9 314.5 550.3 312.4 552.5C310.7 554.3 310.1 557.1 311 559.4C312.1 562.4 315.1 564.1 317.9 565.6C319.5 566.4 321.1 567.3 322.6 568.1C325.4 569.6 328.3 571.1 331.4 570.9C334.1 570.8 336.601 569.4 338.701 567.7C340.901 565.9 342.8 563.8 344.4 561.4C346.2 558.6 347.5 555.5 348.5 552.4C350 547.8 351.4 539.5 345.3 537.3C343.2 536.5 340.8 537.3 338.8 537.9C337.2 538.4 335.6 539.9 333.9 539.4C333.2 539.2 330.101 536 326.201 538.7Z" fill="#FEC83D"/>
<path d="M335.5 539.1C335.5 540 344.9 549.4 350.3 550.4C351.2 550.6 355.2 547.8 361 543.2L341.8 530.5C337.8 535.7 335.5 538.9 335.5 539.1Z" fill="#FFEECB"/>
<path d="M1034.4 168.9C1033.5 167.4 1043.8 152.8 1043.8 152.8L1056.9 112C1056.1 110.8 1054.8 110 1053.5 109.4C1052.2 108.8 1050.3 109.3 1050 110.7C1049.9 111.1 1050.7 111.5 1050.5 111.1C1049.5 108.4 1044.7 105.5 1041.8 105.7C1040.9 105.8 1039.9 106 1039.3 106.8C1038.7 107.5 1038.6 108.7 1039.4 109.3C1039.6 108.8 1039.7 108.2 1039.9 107.7C1037.7 106.6 1032.1 103.9 1029.7 104C1027.3 104.1 1024.7 105.8 1024.6 108.2C1023.6 103.9 1018.7 100.9 1014.3 101.9C1013.7 102.1 1013 102.4 1012.8 103C1012.7 103.6 1013.6 104.3 1014 103.7C1014.1 103.3 1014.1 102.8 1014.2 102.4C1012.5 101.2 1007.2 99.7002 1005.1 100C1003.1 100.3 1001.3 102.5 1002.1 104.3C1000.8 103.3 993.5 102.1 992.3 103.2C991.1 104.3 990.8 106.4 991.7 107.8C990.1 107.5 983.5 107.3 982.8 108.8C982.1 110.3 982.6 112.2 983.9 113.2C982.1 113.4 976.5 113 975.8 114.7C975.1 116.4 976.3 118.7 978.1 118.7C976.2 119.4 971.7 121.1 970.9 123C970.1 124.9 971.8 127.6 973.7 127.1C972.5 127.7 967.6 130.3 966.8 131.3C965.9 132.3 965.6 133.9 966.3 135C967.1 136.2 968.8 136.3 970.3 136.3C969.3 136.7 969 138.5 969.5 139.4C970 140.3 971.3 140.7 972.2 140.2L987.7 178L1034.4 168.9Z" fill="#6B3D44"/>
<path d="M828.6 488.9C828.4 490.3 825.7 492.9 824.7 493.8C822 496 820 495.9 820.8 499.3C821.6 502.7 822.7 506.3 821.5 509.5C820.5 512.1 818 514 815.2 514.3C811.7 514.6 808.5 512.4 805.6 510.3C804 509.1 802.4 507.9 800.8 506.7C798 504.6 795 502.4 793.7 499.2C792.5 496.4 792.7 493.2 793.4 490.3C794.1 487.2 795.3 484.2 797 481.6C798.9 478.4 801.5 475.7 804.1 473.1C808 469.3 815.8 464 820.9 469C822.7 470.8 823.1 473.5 823.4 475.9C823.7 477.8 823 480.1 824.3 481.6C824.7 482.1 829.4 483.6 828.6 488.9Z" fill="#EC5946"/>
<path d="M986.7 243.5C988.4 247.4 987.7 251.9 984.8 255L888.7 358.8C888.7 358.8 825.5 482.9 824.7 483.3C823.8 483.7 811.2 479.3 808 474.8C804.7 470.3 845.4 335.1 845.6 333.2C845.8 331.4 924.6 239.9 931.8 231.5C932.2 231 932.6 230.6 933.1 230.2C938.3 226 968.9 203.3 986.7 243.5Z" fill="#F9AE93"/>
<path d="M891.3 306.1C887 302 882.4 297.8 877 295.4C871.5 301.8 866.3 308 861.7 313.4C865.4 309 869.5 304.2 873.9 299C881.8 303.5 889.1 309.1 894.5 316.3C899.2 322.5 902.3 329.7 905.4 336.9C905.8 337.8 906.1 338.6 906.5 339.5L899.7 346.9L913.8 331.7C912.9 330.3 912 328.9 911.1 327.6C905.5 319.7 898.4 312.8 891.3 306.1Z" fill="#273941"/>
<path d="M894.6 316.4C889.2 309.1 881.9 303.6 874 299.1C858.3 317.5 845.6 332.7 845.5 333.4C845.3 335.2 804.6 470.4 807.9 475C811.2 479.5 823.8 484 824.6 483.5C825.5 483.1 888.6 359 888.6 359L906.6 339.6C906.2 338.7 905.9 337.9 905.5 337C902.4 329.8 899.3 322.6 894.6 316.4Z" fill="#EC5946"/>
<path d="M1006.7 467.1L1082.1 652.3L1138 819.3L1102 821.2L1027 674.4L927 508.9C927 508.9 992.7 463.9 1006.7 467.1Z" fill="#0D1416"/>
<path d="M1082.1 652.3L1069 620.2C1050.8 632.1 1030.3 640.4 1009 644.7L1027 674.4L1102 821.2L1138 819.3L1082.1 652.3Z" fill="#EC5946"/>
<path d="M1138 819.3L1118.3 760.4C1105.8 768.4 1090.3 771.7 1075.7 769.5L1102.1 821.2L1138 819.3Z" fill="#FFEECB"/>
<path d="M995.1 479L955.4 661.8L826 822.2L802.7 802L875.5 633.2L897.6 456.7L995.1 479Z" fill="#192428"/>
<path d="M875.5 633.2L802.7 802L826 822.2L955.5 661.8L957.5 652.6C929.2 649.8 901.4 641.7 876.1 628.7L875.5 633.2Z" fill="#EC5946"/>
<path d="M822.7 755.6L802.7 802L826 822.2L867.1 771.3C858.9 770.3 850.8 768.9 843 766.3C835.7 763.9 828.7 760.4 822.7 755.6Z" fill="#FFEECB"/>
<path d="M1000.8 236.7L1011.8 388.8L1019.3 495.8L1009 482.1L988.7 506L875.4 470.3C875.4 470.3 896 224.5 967.5 203L1000.8 236.7Z" fill="#FFEECB"/>
<path d="M970.6 404.9C967 400.2 964.3 394.9 961.8 389.5C933.1 328 937.3 251.1 938.6 251.3C946.6 252.3 947.2 248.8 951.9 255.3C972.1 283.8 984.9 316.7 997.7 349.2C1001.3 358.2 1005 367.4 1010.7 375L1011.7 388.9L1014.9 435C999.1 426.1 981.5 419.3 970.6 404.9Z" fill="#F9AE93"/>
<path d="M1043.8 152.8C1043.8 152.8 1045.2 203.9 1032.7 200.5C1020.2 197.1 1005.7 193.4 1005.7 193.4L1003.5 221.1L976 206.3L986.2 171.3C986.2 171.3 995.4 172.7 997.3 163.6C997.3 163.6 981.2 156.8 986.3 149.7C991.4 142.6 1003.2 143.4 1004.2 154.8V164.7L1014.7 163.5V149.2L1043.8 152.8Z" fill="#EC5946"/>
<path d="M975.199 197.2L979.299 190.6L1011.8 204.6L1001.1 225.6L975.199 197.2Z" fill="#FFEECB"/>
<path d="M975.2 191.5L1009.9 208.9L1000.8 236.7L967.6 203.1L975.2 191.5Z" fill="#273941"/>
<path d="M973.599 224.4C978.299 224.5 982.499 227.4 984.199 231.8L1041.9 377.4C1041.9 377.4 1135.6 499.8 1135.6 500.9C1135.6 502 1125.1 512.4 1119.1 513.5C1113.1 514.6 997.499 409.4 995.699 408.3C994.099 407.2 940.299 284.8 935.399 273.6C935.099 273 934.899 272.3 934.699 271.7C932.999 264.3 924.899 222.9 973.599 224.4Z" fill="#EC5946"/>
<path d="M984.2 231.8C982.5 227.4 978.3 224.5 973.6 224.4C924.9 222.9 933 264.4 934.8 271.7C935 272.4 935.2 273 935.5 273.6C938 279.2 952.8 312.9 967.1 345.2C982.1 332.3 998.6 321.4 1016.3 312.6L984.2 231.8Z" fill="#FFEECB"/>
<path d="M1006 309.7C991 317.7 977 327.6 964.3 339C965.2 341 966.1 343.1 967 345.1C982 332.2 998.5 321.3 1016.2 312.5L1013.6 305.9C1011 307.1 1008.4 308.4 1006 309.7Z" fill="#273941"/>
<path d="M1146 500.5C1147.1 501.3 1148.4 504.8 1148.7 506.2C1149.5 509.6 1148.5 511.3 1151.9 512.1C1155.3 512.9 1159 513.4 1161.4 515.9C1163.3 517.9 1164 521 1163 523.6C1161.7 526.9 1158.4 528.8 1155.3 530.5C1153.5 531.4 1151.8 532.4 1150 533.3C1146.9 535 1143.6 536.6 1140.1 536.5C1137.1 536.3 1134.3 534.8 1132 532.9C1129.5 530.9 1127.4 528.6 1125.7 525.9C1123.7 522.8 1122.3 519.3 1121.1 515.8C1119.4 510.6 1117.9 501.3 1124.7 498.9C1127.1 498.1 1129.7 498.9 1132 499.6C1133.8 500.2 1135.6 501.8 1137.5 501.3C1138.1 501 1141.6 497.5 1146 500.5Z" fill="#EC5946"/>
<path d="M825.6 808L837 827.9C837 827.9 893.2 840.5 891.3 859.7L836.6 855.9L781.8 830.3L806.9 793.3L825.6 808Z" fill="#0D1416"/>
<path d="M1135.3 811.4L1152.7 831.2C1152.7 831.2 1215.3 837.8 1221.4 856.2H1103.3L1098.3 814.1L1135.3 811.4Z" fill="#0D1416"/>
</svg>
