<svg width="1400" height="980" viewBox="0 0 1400 980" fill="none" xmlns="http://www.w3.org/2000/svg">
<g filter="url(#filter0_d_64_259)">
<path d="M236.144 231.609C236.144 231.609 129.918 282.792 248.612 385.824C248.612 385.824 298.757 385.365 253.133 292.968C246.086 278.696 232.46 259.969 236.144 231.609Z" fill="#0DA5CE"/>
<path d="M248.612 385.824C248.612 385.824 244.569 353.886 228.096 326.445C211.624 299.003 212.017 267.338 236.143 231.61" stroke="#2E547B" stroke-miterlimit="10"/>
<path d="M269.968 369.836C269.968 369.836 262.604 356.27 239.992 351.935" stroke="#2E547B" stroke-miterlimit="10"/>
<path d="M227.271 365.355C227.271 365.355 227.502 348.293 237.498 345.453" stroke="#2E547B" stroke-miterlimit="10"/>
<path d="M224.934 320.696C224.934 320.696 253.883 309.816 268.818 332.59" stroke="#2E547B" stroke-miterlimit="10"/>
<path d="M208.647 342.018C208.647 342.018 207.028 316.513 221.802 313.683" stroke="#2E547B" stroke-miterlimit="10"/>
<path d="M216.981 292.961C216.981 292.961 241.558 275.574 253.133 292.967" stroke="#2E547B" stroke-miterlimit="10"/>
<path d="M192.544 298.724C192.544 298.724 203.521 284.388 216.754 285.533" stroke="#2E547B" stroke-miterlimit="10"/>
<path d="M220.777 262.281C220.777 262.281 230.862 253.725 239.949 265.707" stroke="#2E547B" stroke-miterlimit="10"/>
<path d="M198.981 267.767C198.981 267.767 212.368 251.698 223.028 256.034" stroke="#2E547B" stroke-miterlimit="10"/>
<path d="M180.812 302C167.664 297.059 155.748 288.796 149.474 276.451C143.583 281.886 139.847 289.222 136.573 296.537C133.13 304.228 130.087 312.249 127.614 320.442C130.299 323.803 132.582 326.537 133.344 327.498C141.038 337.195 153.372 351.666 164.498 357.41C157.881 358.235 152.429 352.672 146.436 349.75C142.19 347.68 137.451 346.909 132.82 345.98C129.312 345.277 125.828 344.459 122.367 343.55C121.036 352.519 120.569 361.526 121.172 370.386C129.821 373.932 138.964 376.274 148.26 377.26C152.684 377.729 158.671 377.431 162.058 380.098C157.351 386.809 144.761 385.902 137.487 385.637C132.737 385.464 127.987 385.292 123.238 385.119C124.679 391.72 126.82 398.175 129.77 404.399C130.667 406.292 131.67 408.135 132.728 409.946C139.302 409.664 145.859 409.02 152.355 407.948C158.085 407.003 174.074 400.244 178.122 404.008C175.507 406.008 172.486 407.509 169.567 409.131C167.516 410.271 165.463 411.411 163.35 412.431C160.013 414.041 156.538 415.345 153.068 416.645C149.156 418.112 145.244 419.579 141.333 421.045C151.141 430.434 164.921 434.895 178.502 435.978C200.958 437.768 223.934 430.895 241.965 417.448C252.015 409.954 256.311 408.622 268.371 405.591C278.773 402.977 289.321 398.751 295.966 389.901C298.993 385.869 300.994 381.127 302.191 376.229C305.732 361.731 301.957 345.639 292.338 334.228C290.344 331.862 288.138 329.736 285.779 327.802C273.455 341.022 253.878 362.563 248.283 364.331C251.239 352.418 257.504 340.654 263.997 330.296C266.338 326.561 268.865 322.79 270.784 318.829C262.698 315.338 253.874 313.178 245.174 311.871C244.716 311.802 244.257 311.755 243.799 311.69C239.784 324.608 235.783 337.53 231.729 350.436C230.608 354.004 228.915 364.183 222.76 360.511C219.847 358.773 221.632 343.558 221.572 340.17C221.393 329.923 221.216 319.65 221.609 309.414C211.734 308.576 201.879 307.655 192.232 305.439C191.655 305.306 191.078 305.153 190.501 305.009C188.658 312.583 187.168 320.797 186.771 322.097C184.287 315.684 182.417 308.873 180.812 302ZM247.424 393.294C250.775 389.586 255.739 387.655 260.697 387.027C265.655 386.4 270.678 386.952 275.646 387.505C276.739 387.627 277.942 387.805 278.65 388.647C279.696 389.892 278.966 391.943 277.607 392.835C276.247 393.728 274.523 393.786 272.897 393.815L271.009 392.913C263.903 395.375 256.607 397.29 249.208 398.638C248.527 398.762 247.802 398.877 247.163 398.611C245.236 397.808 246.024 394.843 247.424 393.294ZM163.529 328.671C164.072 331.508 163.231 334.816 160.777 336.34L158.513 335.153C151.396 329.685 145.449 322.703 141.182 314.807C144.014 312.636 148.072 314.235 151.205 315.942C156.574 318.866 162.378 322.667 163.529 328.671ZM184.048 394.101L181.218 394.813C173.608 396.805 165.705 397.676 157.843 397.39C156.647 396.077 157.926 393.976 159.383 392.959C164.336 389.504 170.95 390.087 176.945 390.813C179.642 391.139 182.738 391.723 184.048 394.101ZM203.104 418.551C216.421 415.318 211.731 423.41 201.912 425.86C190.734 428.65 178.835 429.026 167.473 427.202C179.35 424.318 191.227 421.435 203.104 418.551Z" fill="#24578C"/>
<path d="M1197.16 272.575C1197.16 272.575 1292.55 355.151 1141.14 428.367C1141.14 428.367 1089.48 413.867 1162.45 331.196C1173.72 318.427 1193.03 302.896 1197.16 272.575Z" fill="#24578C"/>
<path d="M1141.14 428.367C1141.14 428.367 1154.25 396.512 1178.94 372.776C1203.63 349.04 1212.08 316.225 1197.16 272.575" stroke="#2D679B" stroke-miterlimit="10"/>
<path d="M1123.56 405.88C1123.56 405.88 1134.96 393.928 1159.53 395.776" stroke="#2D679B" stroke-miterlimit="10"/>
<path d="M1168.91 413.195C1168.91 413.195 1173.45 395.508 1163.92 389.779" stroke="#2D679B" stroke-miterlimit="10"/>
<path d="M1183.82 367.722C1183.82 367.722 1156.96 348.388 1135.17 367.732" stroke="#2D679B" stroke-miterlimit="10"/>
<path d="M1194.67 394.3C1194.67 394.3 1203.48 368.409 1189.01 361.355" stroke="#2D679B" stroke-miterlimit="10"/>
<path d="M1199.79 341.302C1199.79 341.302 1179.27 316.47 1162.45 331.197" stroke="#2D679B" stroke-miterlimit="10"/>
<path d="M1223.42 354.089C1223.42 354.089 1216.09 336.211 1202.1 333.693" stroke="#2D679B" stroke-miterlimit="10"/>
<path d="M1204.45 308.552C1204.45 308.552 1196.43 296.894 1183.69 306.728" stroke="#2D679B" stroke-miterlimit="10"/>
<path d="M1225.43 320.314C1225.43 320.314 1216.09 299.973 1203.87 301.469" stroke="#2D679B" stroke-miterlimit="10"/>
<path d="M1259.05 371.097C1259.06 369.662 1260.18 360.929 1260.74 352.724C1260.11 352.685 1259.48 352.656 1258.86 352.606C1248.45 351.762 1238.25 349.55 1228.05 347.249C1225.19 357.667 1221.74 367.941 1218.3 378.189C1217.16 381.578 1214.11 397.446 1210.62 398.266C1203.27 399.999 1204.8 389.224 1204.81 385.279C1204.84 371.01 1204.94 356.742 1205.01 342.473C1204.53 342.392 1204.05 342.294 1203.57 342.217C1194.41 340.761 1184.85 340.124 1175.6 341.06C1176.27 345.654 1177.61 350.251 1178.78 354.752C1182.01 367.236 1184.56 381.061 1183.74 393.981C1178.68 390.422 1165.85 362.527 1157.67 345.308C1154.68 346.502 1151.78 347.937 1149.03 349.681C1135.72 358.094 1126.8 373.075 1125.74 388.781C1125.39 394.087 1125.89 399.493 1127.65 404.511C1131.51 415.527 1140.78 423.135 1150.4 429.076C1161.57 435.964 1165.46 438.671 1173.18 449.408C1187.03 468.671 1207.95 482.898 1231.1 488.249C1245.1 491.484 1260.38 491.387 1273.23 485.067C1269.77 482.347 1266.3 479.626 1262.83 476.906C1259.76 474.493 1256.68 472.076 1253.84 469.394C1252.03 467.696 1250.33 465.895 1248.63 464.096C1246.22 461.535 1243.66 459.063 1241.66 456.221C1246.93 453.725 1260.86 465.613 1266.32 468.388C1272.51 471.534 1278.9 474.269 1285.42 476.646C1287.06 475.161 1288.66 473.626 1290.16 472.009C1295.11 466.69 1299.32 460.88 1302.87 454.7C1298.04 453.361 1293.21 452.023 1288.37 450.684C1280.98 448.634 1268.02 445.537 1265.43 437.29C1269.68 435.687 1275.61 437.893 1280.21 438.83C1289.87 440.799 1299.81 441.355 1309.64 440.543C1313.07 431.825 1315.46 422.619 1316.98 413.176C1313.21 412.988 1309.45 412.701 1305.7 412.291C1300.74 411.749 1295.73 411.016 1290.8 411.746C1283.85 412.776 1276.59 416.634 1270.2 413.698C1283.22 411.464 1300.23 400.84 1311.05 393.538C1312.13 392.814 1315.29 390.792 1319.06 388.267C1319.19 379.24 1318.68 370.206 1317.67 361.375C1316.7 352.977 1315.28 344.409 1311.09 337.068C1300.85 347.484 1286.23 351.999 1271.44 352.781C1267.64 359.184 1263.59 365.437 1259.05 371.097ZM1173.95 428.809C1173.23 428.873 1172.53 428.526 1171.89 428.185C1164.88 424.475 1158.15 420.225 1151.79 415.487L1149.6 415.793C1147.98 415.246 1146.26 414.639 1145.18 413.308C1144.1 411.977 1144.01 409.683 1145.46 408.765C1146.44 408.144 1147.71 408.348 1148.85 408.573C1154.02 409.599 1159.25 410.642 1164.03 412.852C1168.82 415.061 1173.2 418.584 1175.39 423.38C1176.3 425.382 1176.15 428.615 1173.95 428.809ZM1296.77 376.23C1300.47 375.511 1305.06 375.195 1307.21 378.28C1300.41 384.862 1292.2 389.99 1283.31 393.222L1280.65 393.695C1278.67 391.382 1278.88 387.787 1280.33 385.107C1283.4 379.436 1290.44 377.462 1296.77 376.23ZM1247.05 443.326C1253.31 444.505 1260.15 446.025 1264.03 451.076C1265.17 452.562 1265.79 455.082 1264.16 456.022C1256.17 453.807 1248.5 450.414 1241.48 445.987L1238.86 444.37C1240.93 442.396 1244.23 442.795 1247.05 443.326ZM1244.99 482.935C1232.98 481.152 1221.13 476.984 1210.78 470.62C1201.69 465.03 1199.55 455.398 1211.91 462.89C1222.94 469.571 1233.96 476.253 1244.99 482.935Z" fill="#0DA5CE"/>
<path d="M211.414 404.432C211.414 404.432 518.888 238.732 956.551 305.695C1394.21 372.658 1370.45 819.692 1118.54 864.182C866.622 908.671 750.624 773.11 587.536 765.996C424.448 758.883 330.316 849.263 205.92 804.034C81.523 758.807 -38.984 574.855 211.414 404.432Z" fill="#FFFEF5"/>
<path d="M390.924 375.75C390.924 375.75 931.291 289.221 1125.64 420.126C1319.98 551.032 1205.33 833.018 937.923 770.021C670.516 707.024 622.734 687.136 474.883 710.58C327.032 734.024 151.975 696.345 156.346 634.951C160.717 573.558 190.037 452.807 390.924 375.75Z" fill="#EDECE6"/>
<path d="M623.546 338.611C623.546 338.611 474.883 338.611 390.924 375.749C367.524 386.1 362.643 445.981 481.331 436.259C600.019 426.537 615.019 401.352 660.016 413.195C705.014 425.038 752.153 467.485 807.294 457.011C862.436 446.538 877.115 380.649 853.36 372.428C829.606 364.208 762.156 344.427 623.546 338.611Z" fill="#E2E1DE"/>
<path d="M540.476 542.889C540.476 542.889 430.589 584.947 389.31 567.239C348.031 549.532 -16.6038 645.228 201.712 694.875C420.028 744.522 452.217 687.312 519.369 685.918C586.52 684.524 705.921 582.744 540.476 542.889Z" fill="#E2E1DE"/>
<path d="M768.704 347.628C768.704 347.628 668.594 253.332 807.294 196.983C807.294 196.983 840.48 206.51 813.813 272.608C787.145 338.708 772.905 316.846 768.704 347.628Z" fill="#2A5081"/>
<path d="M807.294 196.983C807.294 196.983 747.473 247.474 765.565 344.427" stroke="#0BA4CD" stroke-miterlimit="10"/>
<path d="M821.838 213.25C821.838 213.25 797.319 237.039 783.88 226.67" stroke="#0BA4CD" stroke-miterlimit="10"/>
<path d="M769.747 258.523C769.747 258.523 815.09 268.941 822.307 245.474" stroke="#0BA4CD" stroke-miterlimit="10"/>
<path d="M762.215 304.486C762.215 304.486 795.465 312.72 803.83 294.63" stroke="#0BA4CD" stroke-miterlimit="10"/>
<path d="M734.391 267.092C734.391 267.092 739.693 288.146 762.568 297.032" stroke="#0BA4CD" stroke-miterlimit="10"/>
<path d="M753.282 230.725C753.282 230.725 753.392 255.711 767.501 263.975" stroke="#0BA4CD" stroke-miterlimit="10"/>
<path d="M775.441 213.019C775.441 213.019 769.987 227.412 780.922 231.956" stroke="#0BA4CD" stroke-miterlimit="10"/>
<path d="M841.648 237.933C841.648 237.933 802.209 256.426 775.546 312.925" stroke="#35527E" stroke-miterlimit="10"/>
<path d="M839.302 239.169C839.302 239.169 850.587 217.785 868.13 218.244C868.13 218.245 854.055 239.831 839.302 239.169Z" fill="#12B3D8"/>
<path d="M824.667 249.148C824.667 249.148 839.091 232.903 832.947 214.713C832.947 214.714 822.052 232.387 824.667 249.148Z" fill="#039ECA"/>
<path d="M850.088 255.033C850.088 255.033 835.292 241.475 821.705 251.565C821.705 251.565 838.33 262.604 850.088 255.033Z" fill="#12B3D8"/>
<path d="M814.788 229.338C814.788 229.338 820.98 243.367 809.241 263.249C809.241 263.249 800.32 248.302 814.788 229.338Z" fill="#12B3D8"/>
<path d="M835.97 265.639C835.97 265.639 815.143 254.849 804.073 268.897C804.072 268.897 826.61 276.143 835.97 265.639Z" fill="#039ECA"/>
<path d="M799.063 247.158C799.063 247.158 805.745 259.236 795.95 278.915C795.95 278.915 787.216 269.569 799.063 247.158Z" fill="#039ECA"/>
<path d="M820.62 277.534C820.62 277.534 799.569 269.69 790.277 285.952C790.277 285.952 807.4 291.961 820.62 277.534Z" fill="#12B3D8"/>
<path d="M1212.14 663.522C1212.14 663.522 1119.67 561.723 1262.34 516.336C1262.34 516.336 1294.68 528.416 1262.95 592.239C1231.22 656.062 1218.73 633.161 1212.14 663.522Z" fill="#2A5081"/>
<path d="M1262.34 516.337C1262.34 516.337 1198.77 562.021 1209.26 660.088" stroke="#0BA4CD" stroke-miterlimit="10"/>
<path d="M1275.57 533.686C1275.57 533.686 1249.28 555.495 1236.68 544.113" stroke="#0BA4CD" stroke-miterlimit="10"/>
<path d="M1220.12 574.77C1220.12 574.77 1264.51 588.684 1273.53 565.849" stroke="#0BA4CD" stroke-miterlimit="10"/>
<path d="M1209.03 620.007C1209.03 620.007 1241.54 630.803 1251.29 613.417" stroke="#0BA4CD" stroke-miterlimit="10"/>
<path d="M1184.2 580.562C1184.2 580.562 1187.85 601.964 1209.96 612.604" stroke="#0BA4CD" stroke-miterlimit="10"/>
<path d="M1205.86 545.774C1205.86 545.774 1204.03 570.693 1217.45 580.029" stroke="#0BA4CD" stroke-miterlimit="10"/>
<path d="M1229.33 529.846C1229.33 529.846 1222.78 543.772 1233.32 549.152" stroke="#0BA4CD" stroke-miterlimit="10"/>
<path d="M1287.05 595.47C1287.05 595.47 1246.29 610.839 1215.31 665.092" stroke="#35527E" stroke-miterlimit="10"/>
<path d="M1284.62 596.521C1284.62 596.521 1297.53 576.08 1314.98 577.902C1314.98 577.901 1299.27 598.327 1284.62 596.521Z" fill="#12B3D8"/>
<path d="M1269.25 605.33C1269.25 605.33 1284.89 590.257 1280.18 571.644C1280.18 571.645 1267.94 588.416 1269.25 605.33Z" fill="#039ECA"/>
<path d="M1294.13 613.175C1294.13 613.175 1280.44 598.508 1266.11 607.51C1266.11 607.51 1281.82 619.809 1294.13 613.175Z" fill="#12B3D8"/>
<path d="M1260.94 584.812C1260.94 584.812 1266.02 599.281 1252.77 618.189C1252.77 618.188 1245.04 602.592 1260.94 584.812Z" fill="#12B3D8"/>
<path d="M1279.23 622.65C1279.23 622.65 1259.31 610.273 1247.18 623.417C1247.18 623.417 1269.08 632.395 1279.23 622.65Z" fill="#039ECA"/>
<path d="M1243.88 601.354C1243.88 601.354 1249.6 613.916 1238.3 632.773C1238.3 632.773 1230.32 622.776 1243.88 601.354Z" fill="#039ECA"/>
<path d="M1263.01 633.315C1263.01 633.315 1242.63 623.856 1232.1 639.346C1232.1 639.347 1248.7 646.67 1263.01 633.315Z" fill="#12B3D8"/>
<path d="M709.47 416.308C709.47 416.308 833.636 440.427 855.322 419.417C870.211 404.992 862.409 358.871 856.054 331.375C853.179 318.933 841.959 310.232 829.196 310.609C791.461 311.724 715.366 315.426 698.339 327.318C675.477 343.286 693.392 413.467 709.47 416.308Z" fill="#45D7FF"/>
<path d="M855.321 419.417C862.491 412.471 864.396 398.173 863.738 382.146C827.482 368.665 751.423 383.877 726.632 389.66C696.374 396.718 709.47 416.308 709.47 416.308C709.47 416.308 833.636 440.427 855.321 419.417Z" fill="#15AACC"/>
<path d="M778.371 380.196C778.371 380.196 764.874 346.341 769.859 313.695C774.845 281.049 834.612 291.86 842.762 298.712C850.912 305.564 864.124 330.596 863.738 382.146C863.738 382.146 837.551 368.432 778.371 380.196Z" fill="#0DCBFF"/>
<path d="M691.185 336.494C691.185 336.494 692.568 398.115 706.92 404.116C721.274 410.118 806.591 408.002 806.591 408.002" stroke="#4C2C1C" stroke-miterlimit="10" stroke-dasharray="5 5"/>
<path d="M812.092 377.021C812.092 377.021 800.362 415.581 811.13 427.998C821.898 440.415 850.55 436.18 859.402 421.522C868.254 406.865 863.738 382.146 863.738 382.146C863.738 382.146 849.59 370.023 812.092 377.021Z" fill="#15A4BC"/>
<path d="M809.639 425.867C809.639 425.867 809.834 407.656 812.561 393.783C813.832 387.313 819.179 382.405 825.745 381.796C830.87 381.321 838.103 381.728 848.093 384.295" stroke="#4C2C1C" stroke-miterlimit="10" stroke-dasharray="5 5"/>
<path d="M847.92 421.816C850.924 421.816 853.36 419.38 853.36 416.376C853.36 413.372 850.924 410.936 847.92 410.936C844.916 410.936 842.48 413.372 842.48 416.376C842.48 419.38 844.916 421.816 847.92 421.816Z" fill="white"/>
<path d="M683.297 387.663C683.297 387.663 695.076 393.334 696.635 391.844L695.668 398.884C695.669 398.884 684.875 400.115 683.297 387.663Z" fill="#15A4BC"/>
<path d="M684.167 369.949C684.167 369.949 681.902 361.436 688.966 355.74C688.966 355.74 691.198 360.865 689.521 363.369C687.843 365.873 684.167 369.949 684.167 369.949Z" fill="#15A4BC"/>
<path d="M809.461 295.997L815.183 344.572" stroke="#4C2C1C" stroke-miterlimit="10" stroke-dasharray="5 5"/>
<path d="M771.088 308.919C771.088 308.919 771.551 332.646 775.777 350.181C778.129 359.936 786.44 367.131 796.443 367.945C805.918 368.716 820.333 368.495 840.628 364.751" stroke="#4C2C1C" stroke-miterlimit="10" stroke-dasharray="5 5"/>
<path d="M683.904 362.91C683.904 362.91 671.251 386.042 684.466 393.924C693.656 399.404 684.065 382.817 686.062 375.465C688.059 368.113 683.904 362.91 683.904 362.91Z" fill="#45D7FF"/>
<path d="M741.087 358.939L738.638 339.621C738.294 336.904 735.813 334.981 733.096 335.325L721.316 336.819C718.599 337.163 716.676 339.645 717.02 342.361L719.469 361.68C719.814 364.396 722.295 366.32 725.012 365.975L736.792 364.481C739.509 364.138 741.432 361.656 741.087 358.939Z" fill="white"/>
<path d="M1195.51 165.093L1189.03 161.897L1187.34 165.31L1193.83 168.505L1195.51 165.093Z" fill="#2C5E84"/>
<path d="M1196.42 166.752L1187.2 162.212L1187.29 162.042C1188.54 159.498 1191.62 158.451 1194.16 159.705C1196.71 160.958 1197.75 164.038 1196.5 166.582L1196.42 166.752Z" fill="#2C5E84"/>
<path d="M1123.73 355.104L1081.76 334.422L1078.4 341.247L1120.37 361.93L1123.73 355.104Z" fill="#2C5E84"/>
<path d="M1118.75 346.285L1091.79 333.001L1089.27 338.12L1116.23 351.404L1118.75 346.285Z" fill="#336797"/>
<path d="M1118.24 340.492L1096.74 329.898L1091.82 332.989L1118.78 346.273L1118.24 340.492Z" fill="#4187AA"/>
<path d="M1121.62 314.754L1115.82 311.896L1109.84 324.041L1115.64 326.899L1121.62 314.754Z" fill="#2C5E84"/>
<path d="M1113.25 324.462C1109.95 322.837 1105.96 324.193 1104.33 327.492L1101.9 332.44L1113.84 338.325L1116.28 333.377C1117.9 330.079 1116.55 326.087 1113.25 324.462Z" fill="#336797"/>
<path d="M1160.98 231.954L1157.07 230.028L1120.34 304.596L1124.25 306.521L1160.98 231.954Z" fill="#2C5E84"/>
<path d="M1118 322.563L1112.2 319.705C1111.16 319.194 1110.74 317.94 1111.25 316.903C1111.76 315.866 1113.01 315.44 1114.05 315.951L1119.85 318.809C1120.89 319.32 1121.31 320.574 1120.8 321.611C1120.29 322.647 1119.04 323.074 1118 322.563Z" fill="#4187AA"/>
<path d="M1120.03 315.505L1116.03 313.531C1114.2 312.632 1113.66 310.307 1114.9 308.737L1120.46 301.72L1126.7 304.794L1124.52 313.477C1124.03 315.421 1121.86 316.404 1120.03 315.505Z" fill="#4187AA"/>
<path d="M1158.01 233.074C1156.22 232.192 1155.49 230.025 1156.37 228.235L1158.47 223.969L1164.95 227.163L1162.85 231.429C1161.97 233.22 1159.8 233.956 1158.01 233.074Z" fill="#4187AA"/>
<path d="M1166.62 226.311L1158.09 222.107L1157.42 223.472L1165.95 227.676L1166.62 226.311Z" fill="#2C5E84"/>
<path d="M1172.08 223.89L1156.72 216.323L1157.2 210.195L1176.65 219.78L1172.08 223.89Z" fill="#2C5E84"/>
<path d="M1165.97 225.967L1158.8 222.436L1159.79 217.836L1169.01 222.376L1165.97 225.967Z" fill="#2C5E84"/>
<path d="M1167.57 179.681C1167.06 180.704 1157.2 210.196 1157.2 210.196L1176.65 219.78L1194.87 193.133L1180.86 183.687L1167.57 179.681Z" fill="#E5F4F9"/>
<path d="M1180.86 183.687L1165.73 214.399" stroke="#2C5E84" stroke-miterlimit="10"/>
<path d="M1195.04 193.642L1167.4 180.022L1167.19 172.707L1201.31 189.522L1195.04 193.642Z" fill="#2C5E84"/>
<path d="M1199.5 184.599L1171.85 170.979L1167.19 172.707L1201.31 189.522L1199.5 184.599Z" fill="#4187AA"/>
<path d="M1193.18 166.431L1189.77 164.749C1183.17 161.499 1175.19 164.211 1171.94 170.808L1199.24 184.26C1202.49 177.663 1199.78 169.681 1193.18 166.431Z" fill="#336797"/>
<path d="M1189.77 164.749C1189.66 164.693 1189.54 164.643 1189.42 164.59L1183.54 176.525L1187.3 178.375L1193.18 166.431L1189.77 164.749Z" fill="#4187AA"/>
<path d="M377.222 125L370.265 126.958L371.295 130.619L378.252 128.662L377.222 125Z" fill="#2C5E84"/>
<path d="M379.008 125.709L369.12 128.49L369.068 128.307C368.3 125.577 369.891 122.741 372.621 121.973C375.351 121.205 378.188 122.796 378.956 125.526L379.008 125.709Z" fill="#2C5E84"/>
<path d="M450.839 314.33L405.797 327.001L407.857 334.326L452.899 321.654L450.839 314.33Z" fill="#2C5E84"/>
<path d="M441.238 311.105L412.308 319.243L413.853 324.736L442.783 316.597L441.238 311.105Z" fill="#336797"/>
<path d="M436.979 307.194L413.907 313.684L412.316 319.269L441.248 311.131L436.979 307.194Z" fill="#4187AA"/>
<path d="M422.322 285.821L416.095 287.572L419.76 300.606L425.987 298.855L422.322 285.821Z" fill="#2C5E84"/>
<path d="M422.555 298.605C419.015 299.601 416.953 303.277 417.949 306.816L419.443 312.126L432.261 308.521L430.767 303.211C429.771 299.672 426.094 297.61 422.555 298.605Z" fill="#336797"/>
<path d="M396.193 197.917L391.999 199.097L414.516 279.108L418.71 277.928L396.193 197.917Z" fill="#2C5E84"/>
<path d="M424.82 294.016L418.594 295.767C417.482 296.08 416.326 295.432 416.013 294.32C415.701 293.207 416.348 292.052 417.461 291.739L423.687 289.988C424.799 289.675 425.955 290.323 426.268 291.436C426.581 292.548 425.933 293.703 424.82 294.016Z" fill="#4187AA"/>
<path d="M421.614 287.409L417.314 288.618C415.356 289.169 413.397 287.805 413.272 285.805L412.717 276.87L419.411 274.987L423.595 282.901C424.533 284.672 423.572 286.859 421.614 287.409Z" fill="#4187AA"/>
<path d="M394.77 200.71C392.849 201.251 390.853 200.131 390.312 198.21L389.024 193.632L395.982 191.675L397.27 196.253C397.811 198.174 396.691 200.169 394.77 200.71Z" fill="#4187AA"/>
<path d="M396.657 189.881L387.502 192.457L387.914 193.922L397.069 191.347L396.657 189.881Z" fill="#2C5E84"/>
<path d="M399.095 184.476L382.615 189.111L378.873 184.236L399.747 178.365L399.095 184.476Z" fill="#2C5E84"/>
<path d="M395.937 190.106L388.246 192.27L385.911 188.185L395.799 185.403L395.937 190.106Z" fill="#2C5E84"/>
<path d="M366.191 154.607C366.5 155.706 378.873 184.236 378.873 184.236L399.747 178.364L395.489 146.365L378.757 148.7L366.191 154.607Z" fill="#E5F4F9"/>
<path d="M378.757 148.701L388.028 181.661" stroke="#2C5E84" stroke-miterlimit="10"/>
<path d="M395.958 146.629L366.294 154.973L361.248 149.675L397.869 139.374L395.958 146.629Z" fill="#2C5E84"/>
<path d="M393.229 136.925L363.565 145.269L361.248 149.675L397.869 139.374L393.229 136.925Z" fill="#4187AA"/>
<path d="M376.388 127.632L372.726 128.662C365.647 130.653 361.522 138.006 363.514 145.085L392.811 136.844C390.819 129.766 383.467 125.641 376.388 127.632Z" fill="#336797"/>
<path d="M372.726 128.663C372.603 128.697 372.483 128.737 372.362 128.775L375.965 141.583L379.993 140.45L376.388 127.633L372.726 128.663Z" fill="#4187AA"/>
<path d="M634.606 494.15L562.736 452.501L567.157 453.235L639.026 494.885L634.606 494.15Z" fill="#C6966E"/>
<path d="M634.606 494.15L639.026 494.884L613.034 575.636L612.851 576.204L612.648 576.833C612.288 577.956 611.411 578.823 610.477 579.092C610.176 579.179 609.869 579.203 609.572 579.154C609.25 579.1 608.972 578.966 608.745 578.768C608.11 578.219 607.877 577.189 608.228 576.095L609.099 573.387L634.606 494.15Z" fill="#A37657"/>
<path d="M609.1 573.389L537.23 531.74L562.737 452.501L634.607 494.15L609.1 573.389Z" fill="#B28562"/>
<path d="M607.37 568.879L540.863 530.337L564.466 457.011L630.973 495.553L607.37 568.879Z" fill="#E8C0A3"/>
<path d="M609.1 573.389L608.229 576.096C607.878 577.191 608.111 578.221 608.746 578.77L538.482 598.989L538.401 593.732L609.1 573.389Z" fill="#A37657"/>
<path d="M538.481 598.988L466.611 557.339L466.531 552.083L538.4 593.731L538.481 598.988Z" fill="#B28562"/>
<path d="M538.4 593.731L466.531 552.083L537.23 531.739L609.1 573.389L538.4 593.731Z" fill="#C6966E"/>
<path d="M540.972 587.634L480.07 552.341L539.98 535.103L600.881 570.396L540.972 587.634Z" fill="#B78662"/>
<path d="M236.601 651.545C236.601 651.545 224.966 642.579 210.89 619.76C198.455 599.601 145.504 575.858 91.5459 579.423C91.5459 579.423 94.8309 666.703 201.816 653.887C210.469 652.851 225.424 646.812 236.601 651.545Z" fill="#35527E"/>
<path d="M94.6577 581.333C94.6577 581.333 161.979 627.789 231.577 649.62" stroke="#6488BC" stroke-miterlimit="10"/>
<path d="M98.1108 599.061C98.1108 599.061 112.964 601.341 123.525 599.507" stroke="#6488BC" stroke-miterlimit="10"/>
<path d="M103.383 612.104C103.383 612.104 131.487 614.044 143.395 611.216" stroke="#6488BC" stroke-miterlimit="10"/>
<path d="M115.497 629.451C115.497 629.451 146.555 632.272 162.122 620.693" stroke="#6488BC" stroke-miterlimit="10"/>
<path d="M135.953 644.478C135.953 644.478 171.14 641.737 176.997 627.957" stroke="#6488BC" stroke-miterlimit="10"/>
<path d="M160.924 652.199C160.924 652.199 182.475 654.79 195.598 636.277" stroke="#6488BC" stroke-miterlimit="10"/>
<path d="M194.413 653.026C194.413 653.026 204.138 651.297 209.012 641.705" stroke="#6488BC" stroke-miterlimit="10"/>
<path d="M114.68 581.267C114.68 581.267 122.372 591.403 121.987 598.593" stroke="#6488BC" stroke-miterlimit="10"/>
<path d="M141.891 584.959C141.891 584.959 147.372 600.534 142.221 610.183" stroke="#6488BC" stroke-miterlimit="10"/>
<path d="M158.231 589.261C158.231 589.261 165.715 607.593 160.563 619.903" stroke="#6488BC" stroke-miterlimit="10"/>
<path d="M181.716 598.699C181.716 598.699 182.745 618.722 175.744 627.365" stroke="#6488BC" stroke-miterlimit="10"/>
<path d="M192.649 604.963C192.649 604.963 199.359 623.415 194.011 635.603" stroke="#6488BC" stroke-miterlimit="10"/>
<path d="M208.636 619.854C208.636 619.854 212.351 628.877 207.623 641.166" stroke="#6488BC" stroke-miterlimit="10"/>
<path d="M147.909 519.49C147.909 519.49 155.793 590.363 229.318 661.455" stroke="#35527E" stroke-miterlimit="10"/>
<path d="M148.589 523.779C148.589 523.779 121.39 495.022 131.345 468.073C131.345 468.073 157.387 501.261 148.589 523.779Z" fill="#12B3D8"/>
<path d="M156.346 551.72C156.346 551.72 138.766 520.805 107.337 520.744C107.337 520.744 128.988 546.943 156.346 551.72Z" fill="#039ECA"/>
<path d="M178.859 515.42C178.859 515.42 150.05 531.209 158.531 557.584C158.531 557.584 184.4 537.631 178.859 515.42Z" fill="#12B3D8"/>
<path d="M120.436 556.596C120.436 556.596 145.443 554.389 170.074 583.058C170.074 583.058 142.207 589.011 120.436 556.596Z" fill="#12B3D8"/>
<path d="M187.86 542.889C187.86 542.889 160.164 569.486 176.106 594.045C176.105 594.045 199.21 562.93 187.86 542.889Z" fill="#039ECA"/>
<path d="M139.772 590.356C139.772 590.356 162.013 586.363 187.354 611.913C187.354 611.913 168.267 620.526 139.772 590.356Z" fill="#039ECA"/>
<path d="M198.21 572.947C198.21 572.947 174.961 601.441 195.272 624.411C195.271 624.411 213.606 601.039 198.21 572.947Z" fill="#12B3D8"/>
<path d="M309.937 551.438L384.351 529.137L439.689 512.556C440.324 512.368 440.969 512.206 441.618 512.096C450.545 510.41 459.528 515.521 462.542 524.302C465.64 533.32 461.398 543.196 452.739 547.177L450.996 547.98L359.488 604.814C348.115 611.877 334.492 614.376 321.354 611.808L309.999 609.589L309.937 551.438Z" fill="#0B4177"/>
<path d="M458.482 509.705C464.371 510.932 469.59 515.057 471.883 521.25L518.746 648.169L526.159 668.245L514.565 672.859L502.709 651.509L442.566 543.204L438.806 536.433C437.72 534.466 437.024 532.392 436.706 530.296C435.614 523.083 438.942 515.62 445.638 511.761C449.716 509.407 454.27 508.815 458.482 509.705Z" fill="#0B4177"/>
<path d="M526.165 668.249L542.373 675.246L514.368 679L514.359 672.826L526.165 668.249Z" fill="#0B4177"/>
<path d="M407.437 525.112L343.836 449.349C334.868 438.666 337.267 422.546 348.956 414.936C360.362 407.512 375.678 411.435 382.109 423.428L428.858 510.604C432.066 516.586 430.133 524.029 424.421 527.695C418.915 531.229 411.643 530.122 407.437 525.112Z" fill="#21C7ED"/>
<path d="M511.291 510.313L419.729 529.648C412.628 531.148 405.697 526.466 404.436 519.319C403.114 511.825 408.565 504.833 416.155 504.286L509.621 497.556L511.291 510.313Z" fill="#21C7ED"/>
<path d="M508.569 499.037C508.569 499.037 514.257 491.765 518.567 491.541C522.877 491.317 518.73 497.412 518.73 497.412C518.73 497.412 535.134 493.238 535.412 500.799C535.689 508.359 520.684 512.826 510.303 509.882L508.569 499.037Z" fill="#F4A484"/>
<path d="M251.296 405.293L356.908 410.421C367.902 410.955 376.266 420.505 375.327 431.471C372.684 462.363 366.121 522.988 352.454 570.922C352.454 570.922 324.041 578.636 302.872 577.609C284.727 576.728 260.177 559.829 260.177 559.829C246.146 474.274 251.296 405.293 251.296 405.293Z" fill="#26D1FF"/>
<path d="M413.012 533.979C416.037 543.013 411.706 552.87 403.016 556.77L401.224 557.572L358.462 576.744L312.68 607.97C295.244 619.863 271.312 610.367 266.772 589.757L260.179 559.829L286.172 552.281L390.263 522.043C392.494 521.387 394.757 521.183 396.945 521.365C404.126 521.957 410.592 526.744 413.012 533.979Z" fill="#0A468F"/>
<path d="M486.216 670.928L475.089 676.587L462.777 658.593L386.983 547.792C386.659 547.319 386.358 546.834 386.106 546.343C384.824 544.075 384.099 541.621 383.874 539.148C383.304 532.877 386 526.481 391.504 522.592C399.949 516.615 411.432 518.898 417.083 527.115C417.618 527.886 418.098 528.722 418.52 529.601L477.555 652.846L486.216 670.928Z" fill="#0A468F"/>
<path d="M486.212 670.927L503 676.389L475.465 682.727L474.883 676.58L486.212 670.927Z" fill="#0B4177"/>
<path d="M268.39 515.017C268.39 515.017 275.372 508.976 279.644 509.586C283.916 510.196 278.673 515.379 278.673 515.379C278.673 515.379 295.574 514.441 294.39 521.913C293.207 529.386 277.622 530.881 268.002 525.993L268.39 515.017Z" fill="#FFB18E"/>
<path d="M320.407 431.462L300.85 408.247L306.907 387.888L329.811 394.702L320.407 431.462Z" fill="#FFB18E"/>
<path d="M343.765 377.504C343.194 389.609 338.409 407.463 328.805 404.607C319.201 401.75 301.046 385.863 304.565 374.034C308.084 362.205 318.723 354.931 328.327 357.788C337.931 360.645 344.346 365.176 343.765 377.504Z" fill="#FFBCA1"/>
<path d="M324.133 375.078C324.133 375.078 352.504 375.966 349.987 363.852C347.47 351.738 329.148 343.852 312.96 352.607C312.96 352.607 283.491 362.199 304.959 394.437C304.958 394.437 321.922 394.134 324.133 375.078Z" fill="#264E81"/>
<path d="M320.032 380.807C320.032 380.807 317.066 371.683 312.866 375.632C308.666 379.58 313.228 390.27 316.74 390.869L320.032 380.807Z" fill="#FFBCA1"/>
<path d="M328.423 390.445L338.354 394.263C338.354 394.263 335.461 397.501 333.69 396.875C331.919 396.249 328.059 392.503 328.423 390.445Z" fill="white"/>
<path d="M320.407 431.462L295.422 407.436L301.385 405.512L320.407 431.462Z" fill="white"/>
<path d="M320.407 431.462L326.619 407.179L325.93 426.13L320.407 431.462Z" fill="white"/>
<path d="M301.094 430.041L308.785 420.286L295.419 407.45L301.094 430.041Z" fill="white"/>
<path d="M325.93 426.13L329.173 432.038C329.173 432.038 331.144 414.584 326.59 407.955L325.93 426.13Z" fill="white"/>
<path d="M187.23 507.651L265.434 447.077C276.461 438.536 277.531 422.273 267.719 412.361C258.144 402.689 242.345 403.279 233.519 413.639L169.368 488.936C164.966 494.103 165.278 501.786 170.084 506.579C174.717 511.198 182.059 511.657 187.23 507.651Z" fill="#21C7ED"/>
<path d="M271.814 514.339L182.761 485.579C175.854 483.349 168.474 487.283 166.475 494.261C164.38 501.576 169.074 509.099 176.566 510.432L268.823 526.854L271.814 514.339Z" fill="#21C7ED"/>
<path d="M339.464 379.382C339.464 379.382 346.753 385.355 345.882 393.857C345.882 393.857 339.702 393.663 338.985 391.04C338.267 388.418 339.464 379.382 339.464 379.382Z" fill="#FFBCA1"/>
<path d="M509.623 396.378L509.347 385.121L541.697 380.097L648.375 363.523C651.453 363.052 654.464 363.449 657.155 364.558C662.223 366.645 666.123 371.215 667.113 376.996C668.847 387.049 661.114 396.231 650.914 396.246L542.934 396.347L509.623 396.378Z" fill="#22273F"/>
<path d="M667.067 382.446C669.089 373.703 663.847 364.923 655.191 362.555L520.74 324.232L502.214 372.421L648.647 395.256C657.166 396.354 665.13 390.815 667.067 382.446Z" fill="#22273F"/>
<path d="M500.615 392.208L484.762 390.785L507.686 379.676L509.434 384.961L500.615 392.208Z" fill="#F4A07F"/>
<path d="M584.22 400.653C584.628 402.082 584.855 403.588 584.857 405.145C584.867 415.338 575.709 423.096 565.648 421.396L472.855 405.679L426.35 397.794L427.957 386.658L473.236 387.319L568.639 388.714C576.066 388.821 582.274 393.838 584.22 400.653Z" fill="#2D3353"/>
<path d="M582.988 413.229C587.453 405.444 584.974 395.523 577.372 390.754L519.369 336.333L473.924 325.851L472.693 327.9C459.352 350.103 468.496 378.973 492.186 389.449L561.65 420.165C569.488 423.68 578.714 420.681 582.988 413.229Z" fill="#2D3353"/>
<path d="M426.352 397.8L413.602 407.327L423.246 383.75L428.076 386.515L426.352 397.8Z" fill="#FFB18E"/>
<path d="M550.323 169.854C550.323 169.854 549.892 191.456 552.039 198.495C552.039 198.495 540.428 197.971 539.058 196.634C537.688 195.297 540.884 173.183 550.323 169.854Z" fill="#34517D"/>
<path d="M599.226 309.067L547.372 236.508C540.06 226.277 543.347 211.955 554.387 205.935C565.159 200.061 578.651 204.662 583.591 215.893L619.498 297.529C621.962 303.131 619.703 309.685 614.311 312.579C609.115 315.37 602.655 313.866 599.226 309.067Z" fill="#F4A484"/>
<path d="M583.591 215.894C578.651 204.663 565.159 200.062 554.387 205.936C543.346 211.956 540.06 226.278 547.372 236.509L575.122 275.339C585.207 274.51 598.567 265.985 602.408 258.675L583.591 215.894Z" fill="#F25555"/>
<path d="M688.278 270.429L615.286 312.744C609.625 316.026 602.371 313.965 599.281 308.198C596.04 302.15 598.743 294.627 605.091 292.024L683.259 259.971L688.278 270.429Z" fill="#F4A484"/>
<path d="M682.494 259.893C682.494 259.893 689.654 255.647 693.348 256.872C697.042 258.097 691.561 261.857 691.561 261.857C691.561 261.857 706.707 263.724 704.464 270.165C702.221 276.606 688.153 275.445 680.399 269.571L682.494 259.893Z" fill="#F4A484"/>
<path d="M486.226 284.071L476.035 220.666C473.776 206.613 485.548 194.283 499.69 195.888L566.259 203.446C576.119 204.565 583.09 213.644 581.608 223.456C581.123 226.668 579.492 231.698 577.185 237.709C577.27 242.338 578.53 248.116 579.249 251.624C581.807 264.107 576.656 268.468 565.703 270.63C564.69 270.83 563.684 270.925 562.683 270.971C554.321 288.839 546.372 304.505 546.372 304.505L554.727 333.919C554.727 333.919 545.397 357.428 507.925 350.724C491.803 347.84 466.531 338.551 466.531 338.551L486.226 284.071Z" fill="#FF6160"/>
<path d="M440.518 289.483L477.045 208.123C482.195 196.651 492.265 199.099 503.029 205.6L504.319 203.374C514.822 209.717 516.148 217.52 513.107 229.013L460.702 301.175C457.106 306.127 450.307 307.48 445.089 304.282C440.059 301.2 438.102 294.863 440.518 289.483Z" fill="#FFBCA1"/>
<path d="M535.46 306.28L451.089 306.56C444.545 306.581 439.285 301.179 439.483 294.638C439.69 287.78 445.784 282.607 452.585 283.516L536.324 294.712L535.46 306.28Z" fill="#FFBCA1"/>
<path d="M535.021 295.58C535.021 295.58 542.21 291.385 545.895 292.634C549.58 293.883 544.074 297.607 544.074 297.607C544.074 297.607 559.207 299.579 556.919 306.004C554.631 312.43 540.572 311.17 532.858 305.243L535.021 295.58Z" fill="#FFBCA1"/>
<path d="M543.427 222.7L521.902 199.013L521.919 179.862L543.462 179.88L543.427 222.7Z" fill="#FFB18E"/>
<path d="M551.115 161.438C553.725 172.048 550.511 189.446 545.132 188.699C540.455 188.05 519.359 181.996 519.369 170.868C519.378 159.741 523.683 148.345 532.718 148.352C541.751 148.361 548.458 150.633 551.115 161.438Z" fill="#FFBCA1"/>
<path d="M541.691 178.34L548.457 178.874C548.457 178.874 547.275 181.379 546.079 181.317C544.883 181.255 541.842 179.665 541.691 178.34Z" fill="white"/>
<path d="M535.315 165.206C535.315 165.206 544.076 165.16 552.657 166.018C556.717 166.424 557.224 139.529 530.939 143.468C530.939 143.468 488.667 143.074 521.904 196.634C521.904 196.634 538.626 187.83 535.315 165.206Z" fill="#34517D"/>
<path d="M513.966 149.958C513.966 149.958 497.649 168.505 510.437 193.471L521.904 196.634L513.966 149.958Z" fill="#34517D"/>
<path d="M506.985 198.77C496.22 192.27 482.194 196.65 477.044 208.123L458.632 249.133C458.632 249.133 461.087 265.94 484.392 268.551L513.105 229.012C520.316 219.084 517.488 205.113 506.985 198.77Z" fill="#FF6160"/>
<path d="M550.125 168L554.726 176.375L549.5 177.25L550.125 168Z" fill="#FFBCA1"/>
<path d="M329.525 705.313C329.525 705.313 209.103 694.66 194.735 669.631C184.871 652.448 204.224 612.147 217.325 588.569C223.254 577.9 235.857 572.874 247.482 576.592C281.848 587.586 350.764 611.092 363.262 626.514C380.043 647.222 345.043 706.952 329.525 705.313Z" fill="#FF6160"/>
<path d="M194.735 669.632C189.985 661.358 192.012 647.722 196.852 633.175C233.716 630.371 299.559 664.441 320.802 676.302C346.73 690.78 329.525 705.314 329.525 705.314C329.525 705.314 209.103 694.66 194.735 669.632Z" fill="#E55353"/>
<path d="M307.113 665.067C307.113 665.067 263.758 643.863 278.438 615.997C293.119 588.13 329.015 606.32 329.015 606.32" stroke="#B23B3B" stroke-miterlimit="10"/>
<path d="M293.545 631.313C297.899 631.313 301.429 627.783 301.429 623.429C301.429 619.075 297.899 615.545 293.545 615.545C289.191 615.545 285.661 619.075 285.661 623.429C285.661 627.783 289.191 631.313 293.545 631.313Z" fill="white"/>
<path d="M367.409 636.833C367.409 636.833 349.858 693.067 335.088 694.788C320.319 696.508 242.512 672.022 242.512 672.022" stroke="#4C2C1C" stroke-miterlimit="10" stroke-dasharray="5 5"/>
<path d="M245.645 642.113C245.645 642.113 246.231 680.631 233.06 689.19C219.888 697.75 194.69 686.29 190.432 670.488C186.174 654.686 196.853 633.175 196.853 633.175C196.853 633.175 213.051 625.777 245.645 642.113Z" fill="#CE4949"/>
<path d="M234.993 687.627C234.993 687.627 239.624 670.848 240.785 657.385C241.327 651.106 237.713 645.185 231.843 642.891C227.262 641.101 220.51 639.564 210.656 639.282" stroke="#4C2C1C" stroke-miterlimit="10" stroke-dasharray="5 5"/>
<path d="M202.338 673.994C205.209 673.994 207.537 671.666 207.537 668.795C207.537 665.924 205.209 663.596 202.338 663.596C199.467 663.596 197.139 665.924 197.139 668.795C197.139 671.666 199.467 673.994 202.338 673.994Z" fill="white"/>
<path d="M361.134 685.917C361.134 685.917 348.817 688.015 347.778 686.233L346.805 692.955C346.805 692.955 356.395 696.938 361.134 685.917Z" fill="#CE4949"/>
<path d="M365.016 669.416C365.016 669.416 369.346 662.195 364.363 655.097C364.363 655.097 360.959 659.214 361.838 661.958C362.716 664.701 365.016 669.416 365.016 669.416Z" fill="#CE4949"/>
<path d="M367.117 663.021C367.117 663.021 372.627 687.612 358.407 691.36C348.517 693.965 361.71 681.263 361.819 673.983C361.926 666.701 367.117 663.021 367.117 663.021Z" fill="#E55353"/>
<path d="M810.395 421.281L909.948 364.134C923.985 356.076 927.81 337.553 918.113 324.594C908.651 311.95 890.396 310.108 878.599 320.607L792.849 396.92C786.965 402.156 786.098 411.037 790.858 417.313C795.445 423.361 803.811 425.06 810.395 421.281Z" fill="#ED8772"/>
<path d="M694.408 396.169L799.592 423.176C807.75 425.271 816.021 420.191 817.841 411.968C819.749 403.345 813.78 394.966 805.008 393.951L696.986 381.463L694.408 396.169Z" fill="#ED8772"/>
<path d="M698.129 383.231C698.129 383.231 691.899 374.515 686.913 374.04C681.928 373.565 686.43 380.839 686.43 380.839C686.43 380.839 667.621 375.177 666.921 383.928C666.22 392.679 683.393 398.611 695.575 395.718L698.129 383.231Z" fill="#ED8772"/>
<path d="M893.605 311.918C893.605 311.918 883.033 309.245 838.965 355.878C838.965 355.878 842.899 390.51 867.899 400.51C867.899 400.51 913.671 376.843 915.785 354.843C917.899 332.844 926.312 306.992 893.605 311.918Z" fill="#FFCF61"/>
<path d="M1008.01 610.289C996.553 608.805 988.315 598.54 989.345 587.035L1003.36 430.475L1069.81 429.756L1031.73 593.818C1029.23 604.589 1018.97 611.71 1008.01 610.289Z" fill="#293357"/>
<path d="M1186.68 695.494H1162.86L1000.02 614.56C988.263 608.718 984.597 593.702 992.336 583.1C999.156 573.76 1012.21 571.616 1021.66 578.283L1186.68 695.494Z" fill="#293357"/>
<path d="M1171 692.378L1153.93 703.694L1186.68 702.236L1185.42 695.184L1171 692.378Z" fill="#E01E1E"/>
<path d="M843.125 525.975C837.848 515.701 841.626 503.092 851.685 497.413L988.558 420.126L1026.85 474.435L870.148 536.164C859.86 540.215 848.177 535.81 843.125 525.975Z" fill="#293357"/>
<path d="M833.553 699.864L819.183 698.036L837.764 517.141C839.106 504.083 851.877 495.377 864.522 498.9C875.663 502.004 882.254 513.471 879.331 524.661L833.553 699.864Z" fill="#293357"/>
<path d="M819.183 698.036L802.984 710.579L835.544 706.715L833.772 699.773L819.183 698.036Z" fill="#E01E1E"/>
<path d="M1014.62 287.495C1029.85 318.406 1052.54 369.183 1069.56 427.747C1069.56 427.747 1025.69 454.898 1004.72 457.027C973.821 460.164 946.116 444.09 946.116 444.09C946.958 381.463 910.857 417.302 881.216 345.201C876.351 333.364 878.678 319.955 889.946 313.888L967.175 272.303C984.441 263.006 1005.96 269.905 1014.62 287.495Z" fill="#FFCF61"/>
<path d="M1027.68 410.148L1000.09 427.196C1000.09 427.196 1017.68 539.554 1108.43 502.283L1027.68 410.148Z" fill="#AF1E1E"/>
<path d="M1027.68 410.148C1027.68 410.148 1048.18 494.51 1072.18 502.51C1096.18 510.51 1134.68 500.51 1130.18 472.51C1125.68 444.51 1083.68 389.055 1083.68 389.055C1083.68 389.055 1047.39 388.286 1027.68 410.148Z" fill="#E01E1E"/>
<path d="M910.013 303.083C910.013 303.083 951.24 385.972 1025.32 425.93C1031.55 429.288 1032.53 437.803 1027.15 442.392L1027.1 442.432C1023.81 445.243 1019.08 445.611 1015.39 443.356C996.574 431.879 939.552 392.429 893.606 311.918C893.605 311.918 897.136 302.278 910.013 303.083Z" fill="#E01E1E"/>
<path d="M949.909 281.6L936.652 329.51L919.665 297.886L949.909 281.6Z" fill="#FFE2AE"/>
<path d="M908.688 401.142L957.298 297.153C964.152 282.49 982.289 277.128 996.015 285.706C1009.41 294.076 1012.77 312.112 1003.3 324.748L934.432 416.586C929.706 422.888 920.93 424.495 914.278 420.278C907.866 416.212 905.473 408.018 908.688 401.142Z" fill="#F59179"/>
<path d="M819.719 447.298L914.475 394.246C921.824 390.131 931.12 392.923 934.986 400.405C939.04 408.251 935.417 417.881 927.196 421.108L825.978 460.854L819.719 447.298Z" fill="#F59179"/>
<path d="M823.77 447.288C823.77 447.288 814.447 442.008 809.725 443.678C805.004 445.348 812.153 450.048 812.153 450.048C812.153 450.048 792.71 452.839 795.761 461.07C798.814 469.301 816.886 467.445 826.715 459.688L823.77 447.288Z" fill="#F59179"/>
<path d="M935.413 322.567L946.959 285.521L935.273 263.819L910.858 276.966L935.413 322.567Z" fill="#ED8772"/>
<path d="M890.945 260.719C894.451 274.339 904.101 293.495 914.339 287.982C924.577 282.469 941.455 260.135 934.664 247.525C927.874 234.915 914.07 229.161 903.833 234.674C893.595 240.188 887.375 246.85 890.945 260.719Z" fill="#F59179"/>
<path d="M912.678 253.331C912.678 253.331 870.813 268.001 870.813 230.196C870.813 208.109 891.626 229.049 920.07 225.163C932.311 223.491 955.816 229.107 939.033 270.801C939.032 270.8 919.688 274.46 912.678 253.331Z" fill="#26344F"/>
<path d="M915.785 262.16C915.785 262.16 916.134 251.033 922.093 254.072C928.052 257.111 926.432 270.501 922.713 272.306L915.785 262.16Z" fill="#F59179"/>
<path d="M909.233 270.426L902.063 280.477C902.063 280.477 906.936 281.76 908.25 280.02C909.564 278.281 910.903 272.185 909.233 270.426Z" fill="#FFFFEA"/>
<path d="M937.923 338.6C937.923 338.6 958.733 365.059 981.733 368.535C981.733 368.535 1029.78 318.849 1000.22 288.954C960.732 249.01 937.923 338.6 937.923 338.6Z" fill="#FFD278"/>
<path d="M892.482 263.819C892.482 263.819 896.232 278.01 892.482 279.26C892.482 279.26 898.857 281.973 900.857 275.679C902.857 269.385 892.482 263.819 892.482 263.819Z" fill="#F59179"/>
<path d="M1077.75 404.235C1071.02 405.796 1066.18 409.678 1066.93 412.906C1067.68 416.133 1073.74 417.485 1080.46 415.924C1087.19 414.363 1092.03 410.481 1091.28 407.253C1090.53 404.025 1084.47 402.674 1077.75 404.235Z" fill="#FFE2AE"/>
<path d="M403.8 340.933C403.8 340.933 395.665 329.444 393.422 318.514C393.422 318.514 394.638 331.886 397.128 335.911C399.618 339.936 387.336 324.285 384.628 321.639C384.628 321.639 393.913 333.209 391.302 340.421C391.302 340.421 385.945 323.155 379.115 319.068C379.115 319.068 383.277 336.754 387.697 343.218C387.697 343.218 382.326 336.535 375.547 331.162C375.547 331.162 379.443 341.3 383.947 344.551C383.947 344.551 375.898 339.881 370.512 328.706C370.512 328.706 369.37 336.898 373.873 342.369C373.873 342.369 366.704 337.9 363.626 321.277C363.626 321.277 361.241 330.842 366.704 337.9C366.704 337.9 362.595 329.324 356.186 327.216L365.143 358.708L386.43 356.303L403.8 340.933Z" fill="white"/>
<path d="M236.923 399.929C236.923 399.929 228.788 388.441 226.545 377.51C226.545 377.51 227.761 390.882 230.251 394.907C232.741 398.932 220.459 383.281 217.751 380.635C217.751 380.635 227.036 392.205 224.425 399.417C224.425 399.417 219.068 382.151 212.238 378.064C212.238 378.064 216.4 395.75 220.82 402.214C220.82 402.214 215.449 395.531 208.67 390.158C208.67 390.158 212.566 400.297 217.07 403.547C217.07 403.547 209.021 398.878 203.635 387.702C203.635 387.702 202.493 395.894 206.996 401.366C206.996 401.366 199.827 396.897 196.749 380.273C196.749 380.273 194.365 389.838 199.826 396.897C199.826 396.897 195.718 388.321 189.308 386.213L198.265 417.705L219.552 415.3L236.923 399.929Z" fill="white"/>
<path d="M1122.92 373.328C1122.92 373.328 1133.9 364.516 1139.06 354.621C1139.06 354.621 1134.22 367.145 1130.72 370.332C1127.22 373.519 1143.33 361.842 1146.66 360.041C1146.66 360.041 1134.55 368.617 1135.08 376.268C1135.08 376.268 1144.97 361.137 1152.66 359.083C1152.66 359.083 1143.8 374.946 1137.78 379.948C1137.78 379.948 1144.78 374.997 1152.77 371.692C1152.77 371.692 1146.24 380.371 1141.02 382.259C1141.02 382.259 1150.04 379.979 1158.29 370.713C1158.29 370.713 1157.14 378.904 1151.3 382.928C1151.3 382.928 1159.43 380.6 1166.95 365.461C1166.95 365.461 1166.62 375.313 1159.43 380.6C1159.43 380.6 1165.73 373.482 1172.47 373.215L1155.21 401.036L1135.41 392.877L1122.92 373.328Z" fill="white"/>
</g>
<defs>
<filter id="filter0_d_64_259" x="-4" y="0" width="1408" height="988" filterUnits="userSpaceOnUse" color-interpolation-filters="sRGB">
<feFlood flood-opacity="0" result="BackgroundImageFix"/>
<feColorMatrix in="SourceAlpha" type="matrix" values="0 0 0 0 0 0 0 0 0 0 0 0 0 0 0 0 0 0 127 0" result="hardAlpha"/>
<feOffset dy="4"/>
<feGaussianBlur stdDeviation="2"/>
<feComposite in2="hardAlpha" operator="out"/>
<feColorMatrix type="matrix" values="0 0 0 0 0 0 0 0 0 0 0 0 0 0 0 0 0 0 0.25 0"/>
<feBlend mode="normal" in2="BackgroundImageFix" result="effect1_dropShadow_64_259"/>
<feBlend mode="normal" in="SourceGraphic" in2="effect1_dropShadow_64_259" result="shape"/>
</filter>
</defs>
</svg>
